<?xml version="1.0" encoding="utf-8"?>
<!-- Generator: Adobe Illustrator 26.2.1, SVG Export Plug-In . SVG Version: 6.00 Build 0)  -->
<svg version="1.1" id="Layer_1" xmlns="http://www.w3.org/2000/svg" xmlns:xlink="http://www.w3.org/1999/xlink" x="0px" y="0px"
	 viewBox="0 0 257.9 251.3" style="enable-background:new 0 0 257.9 251.3;" xml:space="preserve">
<style type="text/css">
	.st0{fill:#141E26;}
	.st1{fill:#EFC457;stroke:#141E26;stroke-width:7;stroke-miterlimit:10;}
	.st2{fill:#C0E6F2;stroke:#141E26;stroke-width:7;stroke-miterlimit:10;}
	.st3{fill:#BABFF7;stroke:#141E26;stroke-width:7;stroke-miterlimit:10;}
	.st4{fill:#ECD9C6;stroke:#141E26;stroke-width:7;stroke-miterlimit:10;}
	.st5{fill:#FAD1D1;stroke:#141E26;stroke-width:7;stroke-miterlimit:10;}
	.st6{fill:#FF0000;stroke:#141E26;stroke-width:7;stroke-miterlimit:10;}
</style>
<rect class="st0" width="257.9" height="251.3"/>
<g>
	<rect x="8.5" y="49.3" class="st1" width="200.3" height="34.9"/>
	<rect x="8.5" y="88.8" class="st2" width="159.9" height="34.9"/>
	<rect x="8.5" y="128.3" class="st2" width="77.5" height="34.9"/>
	<rect x="90.9" y="128.3" class="st2" width="77.5" height="34.9"/>
	<rect x="8.5" y="167.8" class="st3" width="36" height="34.9"/>
	<rect x="50" y="167.8" class="st3" width="36" height="34.9"/>
	<rect x="90.9" y="167.8" class="st3" width="36" height="34.9"/>
	<rect x="8.5" y="207.3" class="st4" width="36" height="34.9"/>
	<rect x="213.4" y="49.3" class="st1" width="36" height="34.9"/>
	<rect x="172.8" y="128.3" class="st3" width="36" height="34.9"/>
	<rect x="172.8" y="88.8" class="st3" width="36" height="34.9"/>
	<rect x="8.8" y="9.7" class="st5" width="77.5" height="34.9"/>
	<rect x="91.2" y="9.7" class="st6" width="36" height="34.9"/>
	<rect x="172.8" y="167.8" class="st3" width="36" height="34.9"/>
</g>
</svg>
